<svg xmlns="http://www.w3.org/2000/svg" xmlns:xlink="http://www.w3.org/1999/xlink"><symbol id="arrow-left" viewBox="0 0 24 24">
<path d="M13.1171 0.066173L0.36753 11.1924C0.252163 11.293 0.15964 11.4173 0.0962285 11.557C0.0328172 11.6967 -5.31162e-07 11.8484 -5.2445e-07 12.002C-5.17738e-07 12.1555 0.0328172 12.3073 0.0962286 12.447C0.15964 12.5866 0.252163 12.711 0.36753 12.8116L13.1171 23.9344C13.1555 23.968 13.2027 23.9898 13.2531 23.9972C13.3035 24.0046 13.355 23.9972 13.4013 23.9761C13.4477 23.9549 13.487 23.9207 13.5146 23.8777C13.5422 23.8346 13.557 23.7845 13.557 23.7333L13.557 21.0179C13.557 20.8637 13.4904 20.7162 13.3737 20.6123L4.96403 13.2742L23.7333 13.2742C23.88 13.2742 24 13.1535 24 13.006L24 10.9946C24 10.8471 23.88 10.7264 23.7333 10.7264L4.96403 10.7264L13.3737 3.38828C13.4904 3.28772 13.557 3.14022 13.557 2.98266L13.557 0.267309C13.557 0.0393537 13.2904 -0.0846811 13.1171 0.066173Z" fill="#70908B"/>
</symbol><symbol id="arrow-right" viewBox="0 0 24 24">
<path d="M10.8829 23.9338L23.6325 12.8076C23.7478 12.707 23.8404 12.5827 23.9038 12.443C23.9672 12.3033 24 12.1516 24 11.998C24 11.8445 23.9672 11.6927 23.9038 11.553C23.8404 11.4134 23.7478 11.289 23.6325 11.1884L10.8829 0.0655714C10.8445 0.0319603 10.7973 0.0101668 10.7469 0.00278717C10.6965 -0.00459244 10.645 0.00275272 10.5987 0.0239476C10.5523 0.0451425 10.513 0.079294 10.4854 0.122334C10.4578 0.165374 10.443 0.215489 10.443 0.266708L10.443 2.98206C10.443 3.13626 10.5096 3.28376 10.6263 3.38768L19.036 10.7258L0.266656 10.7258C0.119995 10.7258 -2.38146e-06 10.8465 -2.38791e-06 10.994L-2.47583e-06 13.0054C-2.48228e-06 13.1529 0.119995 13.2736 0.266656 13.2736L19.036 13.2736L10.6263 20.6117C10.5096 20.7123 10.443 20.8598 10.443 21.0173L10.443 23.7327C10.443 23.9606 10.7096 24.0847 10.8829 23.9338Z" fill="#70908B"/>
</symbol><symbol id="basket" viewBox="0 0 45 38">
<path d="M12.6435 37.7718C14.1216 37.7718 15.3198 36.6461 15.3198 35.2573C15.3198 33.8686 14.1216 32.7428 12.6435 32.7428C11.1654 32.7428 9.96716 33.8686 9.96716 35.2573C9.96716 36.6461 11.1654 37.7718 12.6435 37.7718Z" fill="#195557"/>
<path d="M28.9039 37.7718C30.382 37.7718 31.5802 36.6461 31.5802 35.2573C31.5802 33.8686 30.382 32.7428 28.9039 32.7428C27.4258 32.7428 26.2275 33.8686 26.2275 35.2573C26.2275 36.6461 27.4258 37.7718 28.9039 37.7718Z" fill="#195557"/>
<path d="M36.1359 8.01101C36.0253 7.88281 35.8857 7.77924 35.7274 7.70774C35.569 7.63624 35.3957 7.5986 35.22 7.59751H10.4548L11.228 9.83264H33.6618L30.4859 23.2435H12.6435L7.2075 7.07225C7.1487 6.90066 7.04659 6.74497 6.90989 6.61848C6.77319 6.49199 6.60594 6.39845 6.42243 6.34583L1.54551 4.9377C1.39555 4.8944 1.23799 4.87928 1.08181 4.8932C0.925634 4.90712 0.773903 4.9498 0.635282 5.01881C0.355326 5.15818 0.145765 5.39634 0.0527001 5.68088C-0.0403644 5.96542 -0.00930887 6.27304 0.139035 6.53607C0.287378 6.7991 0.540859 6.99599 0.843713 7.08343L5.11399 8.31275L10.5738 24.5175L8.62299 26.015L8.46836 26.1603C7.98582 26.6828 7.71232 27.347 7.69495 28.0385C7.67758 28.73 7.91743 29.4056 8.3732 29.9489C8.6974 30.3193 9.10938 30.6133 9.57618 30.8073C10.043 31.0014 10.5516 31.0901 11.0615 31.0664H30.9141C31.2295 31.0664 31.5321 30.9487 31.7552 30.7391C31.9782 30.5295 32.1036 30.2453 32.1036 29.9489C32.1036 29.6525 31.9782 29.3682 31.7552 29.1586C31.5321 28.949 31.2295 28.8313 30.9141 28.8313H10.8711C10.7342 28.8269 10.6007 28.7894 10.4837 28.7224C10.3666 28.6554 10.27 28.5612 10.203 28.4488C10.136 28.3365 10.101 28.2098 10.1014 28.081C10.1017 27.9522 10.1374 27.8257 10.205 27.7137L13.0717 25.4786H31.4374C31.7124 25.4849 31.9812 25.4015 32.1981 25.2426C32.415 25.0836 32.5665 24.859 32.6269 24.6069L36.3976 8.96094C36.4338 8.79433 36.429 8.62216 36.3837 8.45755C36.3383 8.29293 36.2536 8.14021 36.1359 8.01101Z" fill="#195557"/>
<circle cx="35.5" cy="9.5" r="9.5" fill="#FFEDCD"/>
<path d="M37.68 11.79V13H33.66V11.79H35.04V7.17C34.9867 7.25 34.8967 7.34 34.77 7.44C34.65 7.53333 34.51 7.62667 34.35 7.72C34.1967 7.80667 34.0367 7.88 33.87 7.94C33.71 8 33.5633 8.03 33.43 8.03V6.79C33.61 6.79 33.7933 6.74333 33.98 6.65C34.1667 6.55 34.3367 6.44333 34.49 6.33C34.65 6.21 34.78 6.1 34.88 6C34.98 5.9 35.0333 5.84333 35.04 5.83H36.41V11.79H37.68Z" fill="black"/>
</symbol><symbol id="circle-outlined" viewBox="0 0 37 37">
<path d="M18.5 2.3125C9.56074 2.3125 2.3125 9.56074 2.3125 18.5C2.3125 27.4393 9.56074 34.6875 18.5 34.6875C27.4393 34.6875 34.6875 27.4393 34.6875 18.5C34.6875 9.56074 27.4393 2.3125 18.5 2.3125ZM18.5 31.9414C11.0783 31.9414 5.05859 25.9217 5.05859 18.5C5.05859 11.0783 11.0783 5.05859 18.5 5.05859C25.9217 5.05859 31.9414 11.0783 31.9414 18.5C31.9414 25.9217 25.9217 31.9414 18.5 31.9414Z" fill="#195557"/>
<path d="M16.7656 12.1406C16.7656 12.6006 16.9484 13.0418 17.2736 13.367C17.5989 13.6923 18.04 13.875 18.5 13.875C18.96 13.875 19.4011 13.6923 19.7264 13.367C20.0516 13.0418 20.2344 12.6006 20.2344 12.1406C20.2344 11.6806 20.0516 11.2395 19.7264 10.9142C19.4011 10.589 18.96 10.4063 18.5 10.4062C18.04 10.4063 17.5989 10.589 17.2736 10.9142C16.9484 11.2395 16.7656 11.6806 16.7656 12.1406ZM19.3672 16.1875H17.6328C17.4738 16.1875 17.3438 16.3176 17.3438 16.4766V26.3047C17.3438 26.4637 17.4738 26.5938 17.6328 26.5938H19.3672C19.5262 26.5938 19.6562 26.4637 19.6562 26.3047V16.4766C19.6562 16.3176 19.5262 16.1875 19.3672 16.1875Z" fill="#195557"/>
</symbol><symbol id="fb" viewBox="0 0 30 30">
<path d="M25.59 4.37333C22.6733 1.47167 19.11 0 15 0C10.8517 0 7.27833 1.47333 4.37833 4.375C1.47333 7.27667 0 10.8533 0 15C0 19.1083 1.47167 22.6717 4.37333 25.59C7.275 28.5167 10.85 30 15 30C19.1117 30 22.675 28.5167 25.5933 25.595C28.5183 22.6733 30 19.1083 30 15C30 10.8533 28.5167 7.27667 25.59 4.37333ZM23.2367 23.2383C21.3417 25.1367 19.1767 26.2183 16.6667 26.5467V18.3333H20V15H16.6667V12.6667C16.6667 12.5352 16.6926 12.405 16.7429 12.2836C16.7933 12.1622 16.8671 12.0518 16.9601 11.959C17.0532 11.8661 17.1636 11.7925 17.2851 11.7423C17.4067 11.6922 17.5369 11.6664 17.6683 11.6667H20V8.33333H17.6717C16.435 8.33333 15.4033 8.78833 14.5767 9.70333C13.75 10.615 13.3333 11.7283 13.3333 13.05V15H10V18.3333H13.3333V26.55C10.7967 26.225 8.62333 25.1417 6.73833 23.2433C4.44667 20.9367 3.33333 18.24 3.33333 15C3.33333 11.7233 4.445 9.02 6.73667 6.73333C9.02 4.445 11.7233 3.33333 15 3.33333C18.2417 3.33333 20.9367 4.44667 23.2417 6.73833C25.5467 9.025 26.6667 11.7283 26.6667 15C26.6667 18.235 25.545 20.9317 23.2367 23.2383Z" fill="white"/>
</symbol><symbol id="heart" viewBox="0 0 43 43">
<path d="M38.7588 11.909C38.1959 10.6057 37.3843 9.42468 36.3694 8.43203C35.3538 7.43642 34.1563 6.64522 32.8421 6.10146C31.4793 5.53538 30.0177 5.24563 28.5421 5.24902C26.4719 5.24902 24.4521 5.81592 22.6968 6.88672C22.2769 7.14287 21.8779 7.42422 21.5 7.73076C21.1221 7.42422 20.7231 7.14287 20.3032 6.88672C18.5479 5.81592 16.5281 5.24902 14.4579 5.24902C12.9672 5.24902 11.5227 5.53457 10.1579 6.10146C8.83935 6.64736 7.65098 7.43262 6.63057 8.43203C5.61434 9.42356 4.80255 10.6049 4.24121 11.909C3.65752 13.2653 3.35938 14.7057 3.35938 16.188C3.35938 17.5863 3.64492 19.0435 4.21182 20.5258C4.68633 21.7645 5.3666 23.0495 6.23584 24.3471C7.61318 26.4005 9.50703 28.5421 11.8586 30.7131C15.7555 34.3118 19.6146 36.7977 19.7783 36.8985L20.7735 37.5368C21.2145 37.8182 21.7813 37.8182 22.2223 37.5368L23.2175 36.8985C23.3813 36.7936 27.2361 34.3118 31.1372 30.7131C33.4888 28.5421 35.3826 26.4005 36.76 24.3471C37.6292 23.0495 38.3137 21.7645 38.784 20.5258C39.3509 19.0435 39.6364 17.5863 39.6364 16.188C39.6406 14.7057 39.3425 13.2653 38.7588 11.909ZM21.5 34.2152C21.5 34.2152 6.55078 24.6368 6.55078 16.188C6.55078 11.909 10.0907 8.44043 14.4579 8.44043C17.5275 8.44043 20.1898 10.1537 21.5 12.6564C22.8102 10.1537 25.4725 8.44043 28.5421 8.44043C32.9093 8.44043 36.4492 11.909 36.4492 16.188C36.4492 24.6368 21.5 34.2152 21.5 34.2152Z" fill="#195557"/>
<path d="M28.5421 8.44043C25.4725 8.44043 22.8102 10.1537 21.5 12.6564C20.1898 10.1537 17.5275 8.44043 14.4579 8.44043C10.0907 8.44043 6.55078 11.909 6.55078 16.188C6.55078 24.6368 21.5 34.2152 21.5 34.2152C21.5 34.2152 36.4492 24.6368 36.4492 16.188C36.4492 11.909 32.9093 8.44043 28.5421 8.44043Z" fill="black" fill-opacity="0.1"/>
</symbol><symbol id="hedgehog" viewBox="0 0 444 95">
<path d="M55.52 73.92C55.52 73.76 55.68 73.68 56 73.68C56.24 73.68 56.44 73.76 56.6 73.92C56.84 74 56.96 74.08 56.96 74.16C56.16 80.4 55.76 86.08 55.76 91.2C55.76 91.84 55.64 92.32 55.4 92.64C55.16 92.88 54.68 93 53.96 93H0.919997C0.679998 93 0.559998 92.76 0.559998 92.28C0.559998 91.8 0.679998 91.56 0.919997 91.56C3.48 91.56 5.32 91.36 6.44 90.96C7.64 90.56 8.44 89.8 8.84 88.68C9.24 87.48 9.44 85.68 9.44 83.28V27.72C9.44 25.32 9.24 23.56 8.84 22.44C8.44 21.32 7.64 20.56 6.44 20.16C5.24 19.68 3.4 19.44 0.919997 19.44C0.679998 19.44 0.559998 19.2 0.559998 18.72C0.559998 18.24 0.679998 18 0.919997 18H51.8C52.6 18 53 18.36 53 19.08L53.24 35.04C53.24 35.2 53 35.32 52.52 35.4C52.12 35.48 51.88 35.4 51.8 35.16C50.52 30.52 48.36 27.08 45.32 24.84C42.28 22.6 38.28 21.48 33.32 21.48H29.72C27.32 21.48 25.56 22 24.44 23.04C23.32 24.08 22.76 25.68 22.76 27.84V52.32H32.72C37.36 52.32 40.92 51.52 43.4 49.92C45.88 48.32 47.12 46.08 47.12 43.2C47.12 42.96 47.32 42.84 47.72 42.84C48.2 42.84 48.44 42.96 48.44 43.2L48.32 54L48.44 59.76C48.6 62.48 48.68 64.64 48.68 66.24C48.68 66.4 48.44 66.48 47.96 66.48C47.48 66.48 47.24 66.4 47.24 66.24C47.24 62.96 45.96 60.4 43.4 58.56C40.92 56.64 37.32 55.68 32.6 55.68H22.76V82.8C22.76 85.12 23.2 86.84 24.08 87.96C24.96 89.08 26.36 89.64 28.28 89.64H32.24C38.48 89.64 43.48 88.36 47.24 85.8C51 83.24 53.76 79.28 55.52 73.92Z" fill="#195557"/>
<path d="M184.971 91.56C185.211 91.56 185.331 91.8 185.331 92.28C185.331 92.76 185.211 93 184.971 93H166.491C165.531 93 164.651 92.68 163.851 92.04C163.131 91.4 161.771 89.72 159.771 87C157.851 84.2 154.771 79.48 150.531 72.84C147.091 67.4 144.411 63.52 142.491 61.2C140.571 58.88 138.691 57.32 136.851 56.52C135.011 55.64 132.571 55.2 129.531 55.2V83.28C129.531 85.68 129.731 87.48 130.131 88.68C130.611 89.8 131.491 90.56 132.771 90.96C134.051 91.36 136.091 91.56 138.891 91.56C139.051 91.56 139.131 91.8 139.131 92.28C139.131 92.76 139.051 93 138.891 93C135.931 93 133.611 92.96 131.931 92.88L122.331 92.76L113.571 92.88C112.051 92.96 109.891 93 107.091 93C106.931 93 106.851 92.76 106.851 92.28C106.851 91.8 106.931 91.56 107.091 91.56C109.891 91.56 111.931 91.36 113.211 90.96C114.491 90.56 115.371 89.8 115.851 88.68C116.331 87.48 116.571 85.68 116.571 83.28V55.2C113.531 55.2 111.091 55.64 109.251 56.52C107.411 57.32 105.531 58.88 103.611 61.2C101.691 63.52 99.0109 67.4 95.5709 72.84C91.3309 79.48 88.2109 84.2 86.2109 87C84.2909 89.72 82.9309 91.4 82.1309 92.04C81.4109 92.68 80.5709 93 79.6109 93H61.1309C60.8909 93 60.7709 92.76 60.7709 92.28C60.7709 91.8 60.8909 91.56 61.1309 91.56C63.2909 91.48 65.2909 90.76 67.1309 89.4C68.9709 88.04 70.7709 86.24 72.5309 84C74.2909 81.68 76.8509 78.08 80.2109 73.2L82.0109 70.44C84.9709 66.04 87.4509 62.68 89.4509 60.36C91.5309 58.04 93.5709 56.36 95.5709 55.32C97.5709 54.28 99.9709 53.6 102.771 53.28L86.2109 32.88C82.6109 28.48 78.8509 25.16 74.9309 22.92C71.0909 20.6 67.1709 19.44 63.1709 19.44C63.0109 19.44 62.9309 19.2 62.9309 18.72C62.9309 18.24 63.0109 18 63.1709 18L68.3309 18.12C71.6909 18.28 74.9309 18.36 78.0509 18.36C80.4509 18.36 83.7309 18.28 87.8909 18.12L95.8109 18C95.9709 18 96.0509 18.24 96.0509 18.72C96.0509 19.2 95.9709 19.44 95.8109 19.44C93.4909 19.44 91.7309 19.96 90.5309 21C89.4109 21.96 88.8509 23.32 88.8509 25.08C88.8509 28.2 90.6509 32.32 94.2509 37.44L105.531 53.04H108.411C111.691 53.04 114.411 53.08 116.571 53.16V27.72C116.571 25.32 116.331 23.56 115.851 22.44C115.371 21.32 114.491 20.56 113.211 20.16C111.931 19.68 109.931 19.44 107.211 19.44C107.051 19.44 106.971 19.2 106.971 18.72C106.971 18.24 107.051 18 107.211 18L113.811 18.12C117.331 18.28 120.171 18.36 122.331 18.36C124.811 18.36 128.051 18.28 132.051 18.12L138.891 18C139.051 18 139.131 18.24 139.131 18.72C139.131 19.2 139.051 19.44 138.891 19.44C136.171 19.44 134.171 19.68 132.891 20.16C131.611 20.64 130.731 21.48 130.251 22.68C129.771 23.8 129.531 25.56 129.531 27.96V53.16C131.611 53.08 134.331 53.04 137.691 53.04H140.571L151.491 38.04C155.251 32.84 157.131 28.52 157.131 25.08C157.131 23.32 156.571 21.96 155.451 21C154.331 19.96 152.651 19.44 150.411 19.44C150.171 19.44 150.051 19.2 150.051 18.72C150.051 18.24 150.171 18 150.411 18L158.211 18.12C162.371 18.28 165.651 18.36 168.051 18.36C171.171 18.36 174.411 18.28 177.771 18.12L182.931 18C183.091 18 183.171 18.24 183.171 18.72C183.171 19.2 183.091 19.44 182.931 19.44C178.931 19.44 174.971 20.6 171.051 22.92C167.211 25.16 163.491 28.48 159.891 32.88L143.331 53.28C146.211 53.6 148.611 54.28 150.531 55.32C152.531 56.36 154.531 58.04 156.531 60.36C158.531 62.6 161.051 65.96 164.091 70.44L165.891 73.2C169.251 78.08 171.811 81.68 173.571 84C175.331 86.24 177.131 88.04 178.971 89.4C180.811 90.76 182.811 91.48 184.971 91.56Z" fill="#195557"/>
<path d="M271.812 91.56C272.052 91.56 272.172 91.8 272.172 92.28C272.172 92.76 272.052 93 271.812 93C269.012 93 266.772 92.96 265.092 92.88L255.852 92.76L245.052 92.88C243.612 92.96 241.652 93 239.172 93C238.932 93 238.812 92.76 238.812 92.28C238.812 91.8 238.932 91.56 239.172 91.56C242.132 91.56 244.292 91.36 245.652 90.96C247.012 90.56 247.932 89.8 248.412 88.68C248.892 87.56 249.132 85.76 249.132 83.28V34.2L201.132 94.32C200.892 94.56 200.292 94.68 199.332 94.68C197.812 94.68 197.052 94.4 197.052 93.84V27.72C197.052 25.32 196.812 23.56 196.332 22.44C195.852 21.32 194.972 20.56 193.692 20.16C192.412 19.68 190.412 19.44 187.692 19.44C187.452 19.44 187.332 19.2 187.332 18.72C187.332 18.24 187.452 18 187.692 18L194.412 18.12C198.412 18.28 201.492 18.36 203.652 18.36C206.852 18.36 210.452 18.28 214.452 18.12L220.332 18C220.572 18 220.692 18.24 220.692 18.72C220.692 19.2 220.572 19.44 220.332 19.44C217.372 19.44 215.212 19.68 213.852 20.16C212.492 20.56 211.572 21.32 211.092 22.44C210.612 23.56 210.372 25.32 210.372 27.72V77.28L258.372 17.16C258.612 16.92 259.212 16.8 260.172 16.8C260.732 16.8 261.252 16.88 261.732 17.04C262.212 17.2 262.452 17.4 262.452 17.64V83.28C262.452 85.68 262.692 87.48 263.172 88.68C263.652 89.8 264.532 90.56 265.812 90.96C267.092 91.36 269.092 91.56 271.812 91.56Z" fill="#195557"/>
<path d="M356.729 91.56C356.969 91.56 357.089 91.8 357.089 92.28C357.089 92.76 356.969 93 356.729 93H338.249C337.209 93 336.249 92.68 335.369 92.04C334.569 91.4 333.129 89.76 331.049 87.12C328.969 84.4 325.569 79.64 320.849 72.84L317.609 68.28C314.809 64.2 312.729 61.36 311.369 59.76C310.009 58.08 308.569 56.92 307.049 56.28C305.609 55.56 303.689 55.2 301.289 55.2V83.28C301.289 85.68 301.489 87.48 301.889 88.68C302.369 89.8 303.249 90.56 304.529 90.96C305.809 91.36 307.809 91.56 310.529 91.56C310.769 91.56 310.889 91.8 310.889 92.28C310.889 92.76 310.769 93 310.529 93C307.729 93 305.489 92.96 303.809 92.88L293.849 92.76L285.089 92.88C283.489 92.96 281.329 93 278.609 93C278.369 93 278.249 92.76 278.249 92.28C278.249 91.8 278.369 91.56 278.609 91.56C281.329 91.56 283.329 91.36 284.609 90.96C285.889 90.56 286.769 89.8 287.249 88.68C287.729 87.48 287.969 85.68 287.969 83.28V27.72C287.969 25.32 287.729 23.56 287.249 22.44C286.769 21.32 285.889 20.56 284.609 20.16C283.409 19.68 281.449 19.44 278.729 19.44C278.489 19.44 278.369 19.2 278.369 18.72C278.369 18.24 278.489 18 278.729 18L285.089 18.12C288.769 18.28 291.689 18.36 293.849 18.36C296.569 18.36 299.929 18.28 303.929 18.12L310.529 18C310.769 18 310.889 18.24 310.889 18.72C310.889 19.2 310.769 19.44 310.529 19.44C307.889 19.44 305.929 19.68 304.649 20.16C303.369 20.64 302.489 21.48 302.009 22.68C301.529 23.8 301.289 25.56 301.289 27.96V53.16C303.449 53.08 306.169 53.04 309.449 53.04L322.049 35.76C325.329 31.2 326.969 27.4 326.969 24.36C326.969 22.84 326.529 21.64 325.649 20.76C324.769 19.88 323.569 19.44 322.049 19.44C321.889 19.44 321.809 19.2 321.809 18.72C321.809 18.24 321.889 18 322.049 18L327.569 18.12C331.089 18.28 334.209 18.36 336.929 18.36C340.049 18.36 343.289 18.28 346.649 18.12L351.809 18C352.049 18 352.169 18.24 352.169 18.72C352.169 19.2 352.049 19.44 351.809 19.44C348.289 19.44 344.329 20.72 339.929 23.28C335.529 25.84 331.809 29.04 328.769 32.88L312.449 53.16C315.569 53.32 318.129 53.92 320.129 54.96C322.129 55.92 324.089 57.48 326.009 59.64C328.009 61.8 330.809 65.4 334.409 70.44L336.569 73.44C339.929 78.08 342.529 81.56 344.369 83.88C346.289 86.2 348.249 88.04 350.249 89.4C352.249 90.76 354.409 91.48 356.729 91.56Z" fill="#195557"/>
<path d="M443.608 91.56C443.848 91.56 443.968 91.8 443.968 92.28C443.968 92.76 443.848 93 443.608 93C440.808 93 438.568 92.96 436.888 92.88L427.648 92.76L416.848 92.88C415.408 92.96 413.448 93 410.968 93C410.728 93 410.608 92.76 410.608 92.28C410.608 91.8 410.728 91.56 410.968 91.56C413.928 91.56 416.088 91.36 417.448 90.96C418.808 90.56 419.728 89.8 420.208 88.68C420.688 87.56 420.928 85.76 420.928 83.28V34.2L372.928 94.32C372.688 94.56 372.088 94.68 371.128 94.68C369.608 94.68 368.848 94.4 368.848 93.84V27.72C368.848 25.32 368.608 23.56 368.128 22.44C367.648 21.32 366.768 20.56 365.488 20.16C364.208 19.68 362.208 19.44 359.488 19.44C359.248 19.44 359.128 19.2 359.128 18.72C359.128 18.24 359.248 18 359.488 18L366.208 18.12C370.208 18.28 373.288 18.36 375.448 18.36C378.648 18.36 382.248 18.28 386.248 18.12L392.128 18C392.368 18 392.488 18.24 392.488 18.72C392.488 19.2 392.368 19.44 392.128 19.44C389.168 19.44 387.008 19.68 385.648 20.16C384.288 20.56 383.368 21.32 382.888 22.44C382.408 23.56 382.168 25.32 382.168 27.72V77.28L430.168 17.16C430.408 16.92 431.008 16.8 431.968 16.8C432.528 16.8 433.048 16.88 433.528 17.04C434.008 17.2 434.248 17.4 434.248 17.64V83.28C434.248 85.68 434.488 87.48 434.968 88.68C435.448 89.8 436.328 90.56 437.608 90.96C438.888 91.36 440.888 91.56 443.608 91.56Z" fill="#195557"/>
<path d="M17.2679 0.999999C18.0377 -0.333334 19.9622 -0.333333 20.732 1L24.1962 7C24.966 8.33334 24.0037 10 22.4641 10H15.5359C13.9963 10 13.034 8.33333 13.8038 7L17.2679 0.999999Z" fill="#195557"/>
<path d="M41.2679 0.999999C42.0378 -0.333334 43.9622 -0.333333 44.732 1L48.1962 7C48.966 8.33334 48.0037 10 46.4641 10H39.5359C37.9963 10 37.034 8.33333 37.8038 7L41.2679 0.999999Z" fill="#195557"/>
</symbol><symbol id="icon-close" viewBox="0 0 20 20"><path d="M.293 18.291a1 1 0 101.414 1.414L10 11.413l8.292 8.292a1 1 0 101.414-1.414l-8.292-8.292 8.292-8.292A1 1 0 1018.291.293L9.999 8.585 1.707.293A1 1 0 10.293 1.707L8.585 10 .293 18.291z"/></symbol><symbol id="inst" viewBox="0 0 30 30">
<path d="M15 0C6.66667 0 0 6.66667 0 15C0 23.3333 6.66667 30 15 30C23.3333 30 30 23.3333 30 15C30 6.66667 23.3333 0 15 0ZM15 11.6667C16.8333 11.6667 18.3333 13.1667 18.3333 15C18.3333 16.8333 16.8333 18.3333 15 18.3333C13.1667 18.3333 11.6667 16.8333 11.6667 15C11.6667 13.1667 13.1667 11.6667 15 11.6667ZM19.6667 8.33333C19.6667 7.16667 20.6667 6.33333 21.6667 6.33333C22.6667 6.33333 23.6667 7.33333 23.6667 8.33333C23.6667 9.33333 22.8333 10.3333 21.6667 10.3333C20.5 10.3333 19.6667 9.5 19.6667 8.33333ZM15 26.6667C8.5 26.6667 3.33333 21.5 3.33333 15H8.33333C8.33333 18.6667 11.3333 21.6667 15 21.6667C18.6667 21.6667 21.6667 18.6667 21.6667 15H26.6667C26.6667 21.5 21.5 26.6667 15 26.6667Z" fill="white"/>
</symbol><symbol id="Logo" viewBox="0 0 122 57">
<path d="M69.752 22.2363C69.752 22.6688 70.1026 23.0194 70.535 23.0194H71.9714C72.4038 23.0194 72.7544 22.6688 72.7544 22.2363C72.7544 21.8039 72.4038 21.4533 71.9714 21.4533H70.535C70.1026 21.4533 69.752 21.8039 69.752 22.2363Z" fill="#195557"/>
<path d="M80.0061 26.4806C79.845 26.4806 79.6873 26.4951 79.5334 26.5212L74.3725 17.9589C74.3933 17.9336 74.4131 17.9073 74.4309 17.879L77.8967 12.3746C78.0404 12.1464 78.0564 11.8603 77.9395 11.6174C77.8224 11.3745 77.5885 11.2088 77.3205 11.1791L71.6346 10.5477L72.2802 4.86373C72.3106 4.59603 72.2013 4.33146 71.9906 4.16334C71.7802 3.99531 71.4979 3.94723 71.2435 4.03631L65.8439 5.92653L63.9585 0.525034C63.8696 0.270412 63.6561 0.0794463 63.3931 0.0195679C63.1304 -0.0401263 62.855 0.0392819 62.6646 0.230248L58.6251 4.28218L54.5855 0.230248C54.3951 0.0392819 54.1197 -0.0403106 53.857 0.0195679C53.5941 0.0794463 53.3805 0.270505 53.2916 0.524942L51.4062 5.92644L46.0066 4.03631C45.7521 3.94732 45.47 3.99522 45.2594 4.16334C45.0488 4.33137 44.9393 4.59594 44.9697 4.86373L45.6153 10.5477L39.9295 11.1792C39.6615 11.2089 39.4277 11.3745 39.3106 11.6175C39.1935 11.8604 39.2096 12.1464 39.3533 12.3747L42.4013 17.2156L37.5575 20.2576C37.3294 20.4008 37.191 20.6513 37.191 20.9206C37.191 21.19 37.3294 21.4404 37.5575 21.5837L42.4014 24.6257L39.3534 29.4667C39.2015 29.7079 39.1928 30.0125 39.3304 30.262C39.4679 30.5115 39.7302 30.6666 40.0152 30.667L77.5944 30.7093C78.0832 31.5329 78.9811 32.0865 80.0062 32.0865C81.5517 32.0865 82.8091 30.8291 82.8091 29.2835C82.809 27.7379 81.5516 26.4806 80.0061 26.4806ZM77.2068 29.1428L63.2456 29.127C61.3969 22.8652 65.975 17.9954 71.3157 15.9213L78.1207 27.2112C77.5898 27.6947 77.2448 28.379 77.2068 29.1428ZM44.1443 24.7968C44.2551 24.6209 44.2914 24.4082 44.2452 24.2056C44.199 24.003 44.0742 23.8271 43.8982 23.7164L39.4464 20.9206L43.8982 18.1247C44.0742 18.0141 44.1991 17.8382 44.2452 17.6355C44.2915 17.4329 44.2551 17.2202 44.1443 17.0443L41.3444 12.5975L46.5684 12.0174C46.7752 11.9944 46.9642 11.8901 47.094 11.7276C47.2238 11.565 47.2835 11.3574 47.26 11.1508L46.6667 5.92644L51.6284 7.66337C51.8244 7.732 52.0398 7.71975 52.2271 7.62975C52.4143 7.53947 52.5579 7.37854 52.6264 7.1825L54.3585 2.22061L58.0705 5.94403C58.2174 6.09143 58.417 6.17424 58.6251 6.17424C58.8332 6.17424 59.0327 6.09143 59.1796 5.94403L62.8917 2.22061L64.6237 7.1825C64.6921 7.37872 64.8358 7.53966 65.023 7.62984C65.2101 7.72003 65.4256 7.73219 65.6217 7.66347L70.5835 5.92653L69.9902 11.1509C69.9667 11.3575 70.0265 11.5651 70.1562 11.7276C70.2859 11.8903 70.475 11.9945 70.6817 12.0175L75.9057 12.5975L73.4714 16.4636L72.3236 14.5593C72.1325 14.2424 71.7459 14.1027 71.3968 14.2235C67.8059 15.4669 64.8564 17.6385 63.0918 20.3383C61.3344 23.0272 60.8337 26.0454 61.6207 29.125L41.4336 29.1023L44.1443 24.7968ZM80.0061 30.5204C79.3241 30.5204 78.7693 29.9655 78.7693 29.2835C78.7693 28.6014 79.3241 28.0465 80.0061 28.0465C80.6881 28.0465 81.243 28.6014 81.243 29.2835C81.243 29.9655 80.6881 30.5204 80.0061 30.5204Z" fill="#195557"/>
<path d="M16.104 55.545C16.148 55.545 16.17 55.589 16.17 55.677C16.17 55.765 16.148 55.809 16.104 55.809C15.5906 55.809 15.18 55.8017 14.872 55.787L13.178 55.765L11.198 55.787C10.934 55.8017 10.5746 55.809 10.12 55.809C10.076 55.809 10.054 55.765 10.054 55.677C10.054 55.589 10.076 55.545 10.12 55.545C10.6626 55.545 11.0586 55.5084 11.308 55.435C11.5573 55.3617 11.726 55.2224 11.814 55.017C11.902 54.8117 11.946 54.4817 11.946 54.027V48.967H4.83997V54.027C4.83997 54.467 4.88397 54.797 4.97197 55.017C5.05997 55.2224 5.22863 55.3617 5.47797 55.435C5.7273 55.5084 6.1233 55.545 6.66597 55.545C6.6953 55.545 6.70997 55.589 6.70997 55.677C6.70997 55.765 6.6953 55.809 6.66597 55.809C6.15263 55.809 5.74197 55.8017 5.43397 55.787L3.51997 55.765L1.86997 55.787C1.57663 55.8017 1.1733 55.809 0.659967 55.809C0.630633 55.809 0.615967 55.765 0.615967 55.677C0.615967 55.589 0.630633 55.545 0.659967 55.545C1.1733 55.545 1.5473 55.5084 1.78197 55.435C2.01663 55.3617 2.17797 55.2224 2.26597 55.017C2.35397 54.797 2.39797 54.467 2.39797 54.027V43.841C2.39797 43.401 2.35397 43.0784 2.26597 42.873C2.17797 42.6677 2.01663 42.5284 1.78197 42.455C1.56197 42.367 1.20263 42.323 0.703967 42.323C0.659967 42.323 0.637967 42.279 0.637967 42.191C0.637967 42.103 0.659967 42.059 0.703967 42.059L1.89197 42.081C2.56663 42.1104 3.1093 42.125 3.51997 42.125C4.0773 42.125 4.72263 42.1104 5.45597 42.081L6.66597 42.059C6.6953 42.059 6.70997 42.103 6.70997 42.191C6.70997 42.279 6.6953 42.323 6.66597 42.323C6.13797 42.323 5.7493 42.367 5.49997 42.455C5.25063 42.543 5.07463 42.697 4.97197 42.917C4.88397 43.1224 4.83997 43.445 4.83997 43.885V48.351H11.946V43.885C11.946 43.445 11.902 43.1224 11.814 42.917C11.726 42.697 11.5573 42.543 11.308 42.455C11.0586 42.367 10.6626 42.323 10.12 42.323C10.076 42.323 10.054 42.279 10.054 42.191C10.054 42.103 10.076 42.059 10.12 42.059L11.198 42.081C11.9313 42.1104 12.5913 42.125 13.178 42.125C13.574 42.125 14.1386 42.1104 14.872 42.081L16.104 42.059C16.148 42.059 16.17 42.103 16.17 42.191C16.17 42.279 16.148 42.323 16.104 42.323C15.6053 42.323 15.2313 42.367 14.982 42.455C14.7473 42.5284 14.586 42.6677 14.498 42.873C14.4246 43.0784 14.388 43.401 14.388 43.841V54.027C14.388 54.467 14.4246 54.797 14.498 55.017C14.586 55.2224 14.7473 55.3617 14.982 55.435C15.2166 55.5084 15.5906 55.545 16.104 55.545Z" fill="#195557"/>
<path d="M27.7127 52.311C27.7127 52.2817 27.7421 52.267 27.8007 52.267C27.8447 52.267 27.8814 52.2817 27.9107 52.311C27.9547 52.3257 27.9767 52.3404 27.9767 52.355C27.8301 53.499 27.7567 54.5404 27.7567 55.479C27.7567 55.5964 27.7347 55.6844 27.6907 55.743C27.6467 55.787 27.5587 55.809 27.4267 55.809H17.7027C17.6587 55.809 17.6367 55.765 17.6367 55.677C17.6367 55.589 17.6587 55.545 17.7027 55.545C18.1721 55.545 18.5094 55.5084 18.7147 55.435C18.9347 55.3617 19.0814 55.2224 19.1547 55.017C19.2281 54.797 19.2647 54.467 19.2647 54.027V43.841C19.2647 43.401 19.2281 43.0784 19.1547 42.873C19.0814 42.6677 18.9347 42.5284 18.7147 42.455C18.4947 42.367 18.1574 42.323 17.7027 42.323C17.6587 42.323 17.6367 42.279 17.6367 42.191C17.6367 42.103 17.6587 42.059 17.7027 42.059H27.0307C27.1774 42.059 27.2507 42.125 27.2507 42.257L27.2947 45.183C27.2947 45.2124 27.2507 45.2344 27.1627 45.249C27.0894 45.2637 27.0454 45.249 27.0307 45.205C26.7961 44.3544 26.4001 43.7237 25.8427 43.313C25.2854 42.9024 24.5521 42.697 23.6427 42.697H22.9827C22.5427 42.697 22.2201 42.7924 22.0147 42.983C21.8094 43.1737 21.7067 43.467 21.7067 43.863V48.351H23.5327C24.3834 48.351 25.0361 48.2044 25.4907 47.911C25.9454 47.6177 26.1727 47.207 26.1727 46.679C26.1727 46.635 26.2094 46.613 26.2827 46.613C26.3707 46.613 26.4147 46.635 26.4147 46.679L26.3927 48.659L26.4147 49.715C26.4441 50.2137 26.4587 50.6097 26.4587 50.903C26.4587 50.9324 26.4147 50.947 26.3267 50.947C26.2387 50.947 26.1947 50.9324 26.1947 50.903C26.1947 50.3017 25.9601 49.8324 25.4907 49.495C25.0361 49.143 24.3761 48.967 23.5107 48.967H21.7067V53.939C21.7067 54.3644 21.7874 54.6797 21.9487 54.885C22.1101 55.0904 22.3667 55.193 22.7187 55.193H23.4447C24.5887 55.193 25.5054 54.9584 26.1947 54.489C26.8841 54.0197 27.3901 53.2937 27.7127 52.311Z" fill="#195557"/>
<path d="M36.1114 55.897C35.6421 55.897 35.0848 55.875 34.4394 55.831C34.2048 55.8164 33.9114 55.8017 33.5594 55.787C33.2221 55.7724 32.8408 55.765 32.4154 55.765L30.7874 55.787C30.4941 55.8017 30.0981 55.809 29.5994 55.809C29.5701 55.809 29.5554 55.765 29.5554 55.677C29.5554 55.589 29.5701 55.545 29.5994 55.545C30.0688 55.545 30.4134 55.5084 30.6334 55.435C30.8534 55.3617 31.0001 55.2224 31.0734 55.017C31.1614 54.797 31.2054 54.467 31.2054 54.027V43.841C31.2054 43.401 31.1614 43.0784 31.0734 42.873C31.0001 42.6677 30.8534 42.5284 30.6334 42.455C30.4281 42.367 30.0981 42.323 29.6434 42.323C29.5994 42.323 29.5774 42.279 29.5774 42.191C29.5774 42.103 29.5994 42.059 29.6434 42.059L30.8094 42.081C31.4841 42.1104 32.0194 42.125 32.4154 42.125C33.0168 42.125 33.6328 42.103 34.2634 42.059C35.0261 42.0297 35.5394 42.015 35.8034 42.015C37.2848 42.015 38.5974 42.3084 39.7414 42.895C40.9001 43.4817 41.7948 44.281 42.4254 45.293C43.0561 46.305 43.3714 47.4417 43.3714 48.703C43.3714 50.1257 43.0414 51.387 42.3814 52.487C41.7361 53.5724 40.8561 54.4157 39.7414 55.017C38.6414 55.6037 37.4314 55.897 36.1114 55.897ZM35.8914 55.391C36.8301 55.391 37.6588 55.1564 38.3774 54.687C39.0961 54.203 39.6534 53.4917 40.0494 52.553C40.4601 51.6144 40.6654 50.4924 40.6654 49.187C40.6654 47.9404 40.4748 46.811 40.0934 45.799C39.7121 44.7724 39.1694 43.9657 38.4654 43.379C37.7614 42.7924 36.9474 42.499 36.0234 42.499C35.1141 42.499 34.4908 42.587 34.1534 42.763C33.8161 42.939 33.6474 43.313 33.6474 43.885V53.785C33.6474 54.3717 33.8014 54.7897 34.1094 55.039C34.4174 55.2737 35.0114 55.391 35.8914 55.391Z" fill="#195557"/>
<path d="M53.4491 56.073C51.8358 56.073 50.4278 55.765 49.2251 55.149C48.0225 54.533 47.1058 53.697 46.4751 52.641C45.8445 51.5704 45.5291 50.3824 45.5291 49.077C45.5291 47.669 45.8885 46.415 46.6071 45.315C47.3405 44.2004 48.3378 43.3424 49.5991 42.741C50.8751 42.125 52.2978 41.817 53.8671 41.817C54.5565 41.817 55.2531 41.8757 55.9571 41.993C56.6611 42.0957 57.2258 42.235 57.6511 42.411C57.7831 42.455 57.8638 42.5137 57.8931 42.587C57.9371 42.6457 57.9665 42.7557 57.9811 42.917L58.2671 45.975C58.2671 46.019 58.2305 46.0484 58.1571 46.063C58.0838 46.0777 58.0325 46.0557 58.0031 45.997C57.4898 44.8677 56.7785 43.9877 55.8691 43.357C54.9745 42.7264 53.9478 42.411 52.7891 42.411C51.2931 42.411 50.1491 42.9317 49.3571 43.973C48.5798 45.0144 48.1911 46.437 48.1911 48.241C48.1911 49.693 48.4405 50.991 48.9391 52.135C49.4378 53.2644 50.1271 54.1444 51.0071 54.775C51.9018 55.391 52.8991 55.699 53.9991 55.699C54.6005 55.699 55.0625 55.633 55.3851 55.501C55.7078 55.369 55.9425 55.1124 56.0891 54.731C56.2358 54.3497 56.3091 53.785 56.3091 53.037C56.3091 52.2744 56.2651 51.7464 56.1771 51.453C56.0891 51.145 55.8985 50.9397 55.6051 50.837C55.3265 50.7344 54.8351 50.683 54.1311 50.683C54.0431 50.683 53.9991 50.6244 53.9991 50.507C53.9991 50.463 54.0065 50.4264 54.0211 50.397C54.0505 50.353 54.0798 50.331 54.1091 50.331C55.3558 50.4044 56.3605 50.441 57.1231 50.441C57.8711 50.441 58.6485 50.419 59.4551 50.375C59.4845 50.375 59.5065 50.397 59.5211 50.441C59.5505 50.4704 59.5651 50.4997 59.5651 50.529C59.5651 50.6317 59.5285 50.683 59.4551 50.683C59.1911 50.6684 59.0078 50.7197 58.9051 50.837C58.8025 50.9397 58.7365 51.1597 58.7071 51.497C58.6778 51.8197 58.6631 52.4064 58.6631 53.257C58.6631 53.917 58.6851 54.3864 58.7291 54.665C58.7878 54.9437 58.8171 55.1197 58.8171 55.193C58.8171 55.281 58.7951 55.3397 58.7511 55.369C58.7218 55.3984 58.6558 55.4277 58.5531 55.457C56.6611 55.8677 54.9598 56.073 53.4491 56.073Z" fill="#195557"/>
<path d="M71.1756 52.311C71.1756 52.2817 71.205 52.267 71.2636 52.267C71.3076 52.267 71.3443 52.2817 71.3736 52.311C71.4176 52.3257 71.4396 52.3404 71.4396 52.355C71.293 53.499 71.2196 54.5404 71.2196 55.479C71.2196 55.5964 71.1976 55.6844 71.1536 55.743C71.1096 55.787 71.0216 55.809 70.8896 55.809H61.1656C61.1216 55.809 61.0996 55.765 61.0996 55.677C61.0996 55.589 61.1216 55.545 61.1656 55.545C61.635 55.545 61.9723 55.5084 62.1776 55.435C62.3976 55.3617 62.5443 55.2224 62.6176 55.017C62.691 54.797 62.7276 54.467 62.7276 54.027V43.841C62.7276 43.401 62.691 43.0784 62.6176 42.873C62.5443 42.6677 62.3976 42.5284 62.1776 42.455C61.9576 42.367 61.6203 42.323 61.1656 42.323C61.1216 42.323 61.0996 42.279 61.0996 42.191C61.0996 42.103 61.1216 42.059 61.1656 42.059H70.4936C70.6403 42.059 70.7136 42.125 70.7136 42.257L70.7576 45.183C70.7576 45.2124 70.7136 45.2344 70.6256 45.249C70.5523 45.2637 70.5083 45.249 70.4936 45.205C70.259 44.3544 69.863 43.7237 69.3056 43.313C68.7483 42.9024 68.015 42.697 67.1056 42.697H66.4456C66.0056 42.697 65.683 42.7924 65.4776 42.983C65.2723 43.1737 65.1696 43.467 65.1696 43.863V48.351H66.9956C67.8463 48.351 68.499 48.2044 68.9536 47.911C69.4083 47.6177 69.6356 47.207 69.6356 46.679C69.6356 46.635 69.6723 46.613 69.7456 46.613C69.8336 46.613 69.8776 46.635 69.8776 46.679L69.8556 48.659L69.8776 49.715C69.907 50.2137 69.9216 50.6097 69.9216 50.903C69.9216 50.9324 69.8776 50.947 69.7896 50.947C69.7016 50.947 69.6576 50.9324 69.6576 50.903C69.6576 50.3017 69.423 49.8324 68.9536 49.495C68.499 49.143 67.839 48.967 66.9736 48.967H65.1696V53.939C65.1696 54.3644 65.2503 54.6797 65.4116 54.885C65.573 55.0904 65.8296 55.193 66.1816 55.193H66.9076C68.0516 55.193 68.9683 54.9584 69.6576 54.489C70.347 54.0197 70.853 53.2937 71.1756 52.311Z" fill="#195557"/>
<path d="M88.5063 55.545C88.5503 55.545 88.5723 55.589 88.5723 55.677C88.5723 55.765 88.5503 55.809 88.5063 55.809C87.993 55.809 87.5823 55.8017 87.2743 55.787L85.5803 55.765L83.6003 55.787C83.3363 55.8017 82.977 55.809 82.5223 55.809C82.4783 55.809 82.4563 55.765 82.4563 55.677C82.4563 55.589 82.4783 55.545 82.5223 55.545C83.065 55.545 83.461 55.5084 83.7103 55.435C83.9596 55.3617 84.1283 55.2224 84.2163 55.017C84.3043 54.8117 84.3483 54.4817 84.3483 54.027V48.967H77.2423V54.027C77.2423 54.467 77.2863 54.797 77.3743 55.017C77.4623 55.2224 77.631 55.3617 77.8803 55.435C78.1296 55.5084 78.5257 55.545 79.0683 55.545C79.0976 55.545 79.1123 55.589 79.1123 55.677C79.1123 55.765 79.0976 55.809 79.0683 55.809C78.555 55.809 78.1443 55.8017 77.8363 55.787L75.9223 55.765L74.2723 55.787C73.979 55.8017 73.5756 55.809 73.0623 55.809C73.033 55.809 73.0183 55.765 73.0183 55.677C73.0183 55.589 73.033 55.545 73.0623 55.545C73.5756 55.545 73.9496 55.5084 74.1843 55.435C74.419 55.3617 74.5803 55.2224 74.6683 55.017C74.7563 54.797 74.8003 54.467 74.8003 54.027V43.841C74.8003 43.401 74.7563 43.0784 74.6683 42.873C74.5803 42.6677 74.419 42.5284 74.1843 42.455C73.9643 42.367 73.605 42.323 73.1063 42.323C73.0623 42.323 73.0403 42.279 73.0403 42.191C73.0403 42.103 73.0623 42.059 73.1063 42.059L74.2943 42.081C74.969 42.1104 75.5116 42.125 75.9223 42.125C76.4796 42.125 77.125 42.1104 77.8583 42.081L79.0683 42.059C79.0976 42.059 79.1123 42.103 79.1123 42.191C79.1123 42.279 79.0976 42.323 79.0683 42.323C78.5403 42.323 78.1516 42.367 77.9023 42.455C77.653 42.543 77.477 42.697 77.3743 42.917C77.2863 43.1224 77.2423 43.445 77.2423 43.885V48.351H84.3483V43.885C84.3483 43.445 84.3043 43.1224 84.2163 42.917C84.1283 42.697 83.9596 42.543 83.7103 42.455C83.461 42.367 83.065 42.323 82.5223 42.323C82.4783 42.323 82.4563 42.279 82.4563 42.191C82.4563 42.103 82.4783 42.059 82.5223 42.059L83.6003 42.081C84.3336 42.1104 84.9936 42.125 85.5803 42.125C85.9763 42.125 86.541 42.1104 87.2743 42.081L88.5063 42.059C88.5503 42.059 88.5723 42.103 88.5723 42.191C88.5723 42.279 88.5503 42.323 88.5063 42.323C88.0076 42.323 87.6337 42.367 87.3843 42.455C87.1497 42.5284 86.9883 42.6677 86.9003 42.873C86.827 43.0784 86.7903 43.401 86.7903 43.841V54.027C86.7903 54.467 86.827 54.797 86.9003 55.017C86.9883 55.2224 87.1497 55.3617 87.3843 55.435C87.619 55.5084 87.993 55.545 88.5063 55.545Z" fill="#195557"/>
<path d="M97.2551 56.073C95.8911 56.073 94.6738 55.7577 93.6031 55.127C92.5471 54.4817 91.7258 53.6164 91.1391 52.531C90.5671 51.431 90.2811 50.2357 90.2811 48.945C90.2811 47.4344 90.6624 46.1437 91.4251 45.073C92.1878 43.9877 93.1631 43.1737 94.3511 42.631C95.5538 42.0884 96.7784 41.817 98.0251 41.817C99.4184 41.817 100.643 42.147 101.699 42.807C102.755 43.4524 103.562 44.3104 104.119 45.381C104.691 46.4517 104.977 47.5884 104.977 48.791C104.977 50.1257 104.625 51.3504 103.921 52.465C103.217 53.5797 102.271 54.4597 101.083 55.105C99.9098 55.7504 98.6338 56.073 97.2551 56.073ZM97.9811 55.523C98.8024 55.523 99.5358 55.2884 100.181 54.819C100.841 54.335 101.354 53.6384 101.721 52.729C102.088 51.805 102.271 50.705 102.271 49.429C102.271 48.0797 102.066 46.877 101.655 45.821C101.244 44.7504 100.65 43.9144 99.8731 43.313C99.0958 42.7117 98.1864 42.411 97.1451 42.411C95.8104 42.411 94.7838 42.917 94.0651 43.929C93.3464 44.9264 92.9871 46.327 92.9871 48.131C92.9871 49.5537 93.1998 50.8297 93.6251 51.959C94.0651 53.0737 94.6591 53.9464 95.4071 54.577C96.1698 55.2077 97.0278 55.523 97.9811 55.523Z" fill="#195557"/>
<path d="M115.045 56.073C113.432 56.073 112.024 55.765 110.821 55.149C109.618 54.533 108.702 53.697 108.071 52.641C107.44 51.5704 107.125 50.3824 107.125 49.077C107.125 47.669 107.484 46.415 108.203 45.315C108.936 44.2004 109.934 43.3424 111.195 42.741C112.471 42.125 113.894 41.817 115.463 41.817C116.152 41.817 116.849 41.8757 117.553 41.993C118.257 42.0957 118.822 42.235 119.247 42.411C119.379 42.455 119.46 42.5137 119.489 42.587C119.533 42.6457 119.562 42.7557 119.577 42.917L119.863 45.975C119.863 46.019 119.826 46.0484 119.753 46.063C119.68 46.0777 119.628 46.0557 119.599 45.997C119.086 44.8677 118.374 43.9877 117.465 43.357C116.57 42.7264 115.544 42.411 114.385 42.411C112.889 42.411 111.745 42.9317 110.953 43.973C110.176 45.0144 109.787 46.437 109.787 48.241C109.787 49.693 110.036 50.991 110.535 52.135C111.034 53.2644 111.723 54.1444 112.603 54.775C113.498 55.391 114.495 55.699 115.595 55.699C116.196 55.699 116.658 55.633 116.981 55.501C117.304 55.369 117.538 55.1124 117.685 54.731C117.832 54.3497 117.905 53.785 117.905 53.037C117.905 52.2744 117.861 51.7464 117.773 51.453C117.685 51.145 117.494 50.9397 117.201 50.837C116.922 50.7344 116.431 50.683 115.727 50.683C115.639 50.683 115.595 50.6244 115.595 50.507C115.595 50.463 115.602 50.4264 115.617 50.397C115.646 50.353 115.676 50.331 115.705 50.331C116.952 50.4044 117.956 50.441 118.719 50.441C119.467 50.441 120.244 50.419 121.051 50.375C121.08 50.375 121.102 50.397 121.117 50.441C121.146 50.4704 121.161 50.4997 121.161 50.529C121.161 50.6317 121.124 50.683 121.051 50.683C120.787 50.6684 120.604 50.7197 120.501 50.837C120.398 50.9397 120.332 51.1597 120.303 51.497C120.274 51.8197 120.259 52.4064 120.259 53.257C120.259 53.917 120.281 54.3864 120.325 54.665C120.384 54.9437 120.413 55.1197 120.413 55.193C120.413 55.281 120.391 55.3397 120.347 55.369C120.318 55.3984 120.252 55.4277 120.149 55.457C118.257 55.8677 116.556 56.073 115.045 56.073Z" fill="#195557"/>
<path d="M86.7191 17.9983H118V19.3016H86.7191V17.9983Z" fill="#195557"/>
<path d="M1.99997 17.9983H31.9775V19.3016H1.99997V17.9983Z" fill="#195557"/>
</symbol><symbol id="openmoji_hedgehog" viewBox="0 0 72 72">
<path d="M13.588 35.586C13.588 35.586 9.41998 40.752 9.91998 43.919L7.08698 46.419V47.919C7.08698 47.919 13.92 50.752 20.42 48.752V51.252L20.587 53.752L23.92 55.085C23.92 55.085 27.753 54.419 28.753 49.085C28.753 49.085 32.753 50.585 34.42 54.919L39.087 54.585C39.087 54.585 39.753 52.085 38.92 50.419L59.42 50.085L61.42 51.919V53.919L62.42 55.085H64.587L66.253 53.252L64.42 46.752L65.92 42.085C65.92 42.085 48.587 52.585 24.587 38.919L22.754 35.085C22.754 35.085 18.92 35.752 19.087 36.752C19.087 36.752 18.253 34.086 13.587 35.586H13.588Z" fill="#9B9B9A"/>
<path d="M24.463 26.638C23.607 28.888 22.63 29.932 21.849 30.724C21.5818 30.9992 21.2226 31.1663 20.8399 31.1932C20.4573 31.2201 20.0781 31.1051 19.775 30.87L18.591 29.944L15.167 34.998C14.9443 35.3267 14.6445 35.5958 14.2938 35.7818C13.943 35.9678 13.552 36.065 13.155 36.065C13.155 36.065 10.483 39.336 9.55303 42.871C9.29303 43.862 8.67103 44.721 7.84903 45.333L7.46803 45.618C7.46803 45.618 5.11803 47.58 7.92303 48.433C7.92303 48.433 17.546 51.472 22.879 47.222M41.379 22.305C41.379 22.305 39.555 23.532 38.179 23.794C37.589 23.907 37.017 24.024 36.464 24.144L33.296 23.472C31.725 25.267 29.542 26.122 28.005 26.796M59.963 28.805C57.977 28.805 57.413 28.652 56.293 27.748C55.4246 27.0493 54.6889 26.2001 54.121 25.241L53.713 24.551C51.072 24.551 48.246 24.231 45.665 23.807M66.254 38.5C63.158 37.346 62.72 34.085 61.696 32.765M20.818 51.745L20.591 52.218C20.4444 52.5229 20.3775 52.8599 20.3965 53.1977C20.4156 53.5355 20.52 53.8629 20.7 54.1493C20.8801 54.4357 21.1298 54.6718 21.4259 54.8354C21.722 54.9991 22.0547 55.0849 22.393 55.085H24.02C24.3806 55.0852 24.7346 54.9879 25.0444 54.8034C25.3542 54.6189 25.6084 54.3541 25.78 54.037L28.625 48.774C28.625 48.774 32.126 50.224 33.379 53.81C33.652 54.591 34.428 55.085 35.255 55.085H37.278C37.5584 55.0857 37.8357 55.0274 38.0921 54.9138C38.3484 54.8002 38.5779 54.6338 38.7656 54.4256C38.9533 54.2174 39.0951 53.972 39.1817 53.7053C39.2682 53.4387 39.2977 53.1568 39.268 52.878C39.165 51.95 38.977 50.988 38.635 50.565C38.635 50.565 53.791 51.002 58.642 49.953C59.666 49.731 60.686 50.351 60.912 51.374C61.022 51.87 61.087 52.426 61.054 53.011C60.99 54.151 61.907 55.085 63.048 55.085H63.438C64.562 55.085 65.438 54.285 65.511 53.243C65.634 51.499 65.497 48.851 63.963 46.812C63.963 46.812 65.096 45.82 65.075 42.725M19.21 37.218C19.21 37.218 21.334 33.891 23.23 36.876C24.509 38.891 22.922 41.918 21.755 43.674C21.4861 44.0775 21.0856 44.3754 20.6218 44.5169C20.1579 44.6584 19.6594 44.6348 19.211 44.45M27.421 34.597L32.421 30.472M31.546 40.12L37.546 38.062M36.921 32.765L42.968 29.972M39.944 43.472L46.796 42.725M48.796 36.633L55.671 37.865M46.944 32.49L52.398 29.987M53.04 43.769L59.301 45.446" stroke="#195557" stroke-width="2" stroke-miterlimit="10" stroke-linecap="round" stroke-linejoin="round"/>
</symbol><symbol id="phone" viewBox="0 0 27 27">
<path d="M18.33 18.48L20.57 16.24C20.8717 15.942 21.2534 15.7381 21.6688 15.6529C22.0842 15.5676 22.5154 15.6049 22.91 15.76L25.64 16.85C26.0388 17.0119 26.3808 17.2882 26.6228 17.6441C26.8648 18 26.9961 18.4196 27 18.85V23.85C26.9977 24.1428 26.9361 24.432 26.8191 24.7004C26.702 24.9688 26.5318 25.2107 26.3188 25.4115C26.1058 25.6124 25.8543 25.7681 25.5796 25.8692C25.3048 25.9704 25.0124 26.0148 24.72 26C5.59 24.81 1.73 8.60998 1 2.40998C0.966113 2.10552 0.997075 1.79733 1.09085 1.50569C1.18462 1.21405 1.33908 0.945572 1.54407 0.717916C1.74905 0.490259 1.99992 0.308585 2.28016 0.184844C2.5604 0.0611026 2.86366 -0.00190019 3.17 -2.01661e-05H8C8.43101 0.00125562 8.85178 0.131447 9.2082 0.373809C9.56461 0.616171 9.84037 0.95962 10 1.35998L11.09 4.08998C11.2503 4.48305 11.2911 4.91462 11.2075 5.33079C11.124 5.74696 10.9196 6.12928 10.62 6.42998L8.38 8.66998C8.38 8.66998 9.67 17.4 18.33 18.48Z" fill="#195557"/>
</symbol><symbol id="plus" viewBox="0 0 28 28">
<path d="M25.6667 12.3333H15.6667V2.33332C15.6667 1.8913 15.4911 1.46737 15.1785 1.15481C14.866 0.842252 14.442 0.666656 14 0.666656C13.558 0.666656 13.1341 0.842252 12.8215 1.15481C12.5089 1.46737 12.3334 1.8913 12.3334 2.33332V12.3333H2.33335C1.89133 12.3333 1.4674 12.5089 1.15484 12.8215C0.842282 13.134 0.666687 13.558 0.666687 14C0.666687 14.442 0.842282 14.8659 1.15484 15.1785C1.4674 15.4911 1.89133 15.6667 2.33335 15.6667H12.3334V25.6667C12.3334 26.1087 12.5089 26.5326 12.8215 26.8452C13.1341 27.1577 13.558 27.3333 14 27.3333C14.442 27.3333 14.866 27.1577 15.1785 26.8452C15.4911 26.5326 15.6667 26.1087 15.6667 25.6667V15.6667H25.6667C26.1087 15.6667 26.5326 15.4911 26.8452 15.1785C27.1578 14.8659 27.3334 14.442 27.3334 14C27.3334 13.558 27.1578 13.134 26.8452 12.8215C26.5326 12.5089 26.1087 12.3333 25.6667 12.3333Z" fill="#195557"/>
</symbol><symbol id="syringe-solid" viewBox="0 0 46 46">
<path d="M33.3773 5.43518L31.3088 7.50374L31.8478 8.04281L28.5689 11.3217L30.59 13.3889L33.8718 10.0625L35.9375 12.1296L32.6126 15.4071L34.6797 17.4297L37.9586 14.1507L38.4977 14.6898L40.5663 12.6212L33.3773 5.43518ZM25.4711 10.4664L23.4025 12.535L24.347 13.478L10.0625 27.807L9.56801 28.3001L9.65858 28.9757L10.1516 33.557L10.1976 34.0501L10.3313 34.1406L5.66089 38.8125H9.74914L12.6701 35.8929L17.0258 36.3414L17.7014 36.432L18.1945 35.9375L32.5249 21.6516L33.4679 22.5961L35.535 20.5289L25.4711 10.4664ZM26.4141 15.5437L30.4578 19.5859L16.6664 33.4219L13.2523 33.0179L12.9821 32.7477L12.5781 29.3336L26.4141 15.5437Z" fill="#195557"/>
</symbol><symbol id="tw" viewBox="0 0 30 30">
<path d="M20.465 12.1383C21.0617 11.77 21.46 11.27 21.6533 10.6317C21.1067 10.9276 20.52 11.1426 19.9117 11.27C19.6629 10.9964 19.3583 10.7793 19.0184 10.6335C18.6786 10.4877 18.3114 10.4166 17.9417 10.425C17.1683 10.425 16.5167 10.6967 15.9833 11.2233C15.7264 11.474 15.5232 11.7745 15.3862 12.1063C15.2493 12.4381 15.1814 12.7944 15.1867 13.1533C15.1867 13.3817 15.215 13.5867 15.2733 13.76C12.9933 13.68 11.1083 12.7367 9.62167 10.9167C9.37781 11.3311 9.24733 11.8025 9.24333 12.2833C9.24333 13.2467 9.65 14.01 10.46 14.5717C10.0344 14.5429 9.6197 14.4242 9.24333 14.2233C9.24333 14.9117 9.445 15.4867 9.85167 15.9933C10.2567 16.4933 10.78 16.8133 11.4167 16.9483C11.1797 17.0083 10.9361 17.038 10.6917 17.0367C10.5248 17.0462 10.3577 17.0253 10.1983 16.975C10.3717 17.5367 10.6917 17.99 11.155 18.3383C11.6167 18.6883 12.15 18.8717 12.75 18.8883C11.787 19.654 10.5885 20.0627 9.35833 20.045C9.045 20.045 8.825 20.0417 8.69167 20.0167C9.94109 20.8293 11.4029 21.2544 12.8933 21.2383C14.4783 21.2383 15.88 20.8367 17.0967 20.0333C18.3133 19.235 19.215 18.25 19.7917 17.0883C20.3627 15.9659 20.6602 14.7243 20.66 13.465V13.1167C21.22 12.695 21.675 12.22 22.0233 11.6933C21.5275 11.9144 21.0028 12.0643 20.465 12.1383ZM15 30C10.85 30 7.275 28.5167 4.37333 25.59C1.47167 22.6717 0 19.1083 0 15C0 10.8533 1.47333 7.27667 4.37833 4.375C7.27833 1.47333 10.8517 0 15 0C19.11 0 22.6733 1.47167 25.59 4.37333C28.5167 7.27667 30 10.8533 30 15C30 19.1083 28.5183 22.6733 25.5933 25.595C22.675 28.5167 19.1117 30 15 30ZM15 3.33333C11.7233 3.33333 9.02 4.445 6.73667 6.73333C4.445 9.02 3.33333 11.7233 3.33333 15C3.33333 18.24 4.44667 20.9367 6.73833 23.2417C9.025 25.5467 11.7267 26.6667 15 26.6667C18.2383 26.6667 20.9333 25.545 23.2367 23.2383C25.545 20.9317 26.6667 18.235 26.6667 15C26.6667 11.7283 25.5467 9.025 23.2417 6.73833C20.9367 4.44667 18.2417 3.33333 15 3.33333Z" fill="white"/>
</symbol></svg>